<svg width="128" height="128" viewBox="0 0 128 128" fill="none" xmlns="http://www.w3.org/2000/svg">
<path d="M70 52C71.08 52 72 52.92 72 54C72 55.08 71.08 56 70 56C68.92 56 68 55.08 68 54C68 52.92 68.92 52 70 52ZM34 52C35.08 52 36 52.92 36 54C36 55.08 35.08 56 34 56C32.92 56 32 55.08 32 54C32 52.92 32.92 52 34 52Z" fill="#717171"/>
<path d="M93.72 95.604C93.208 95.604 92.696 95.408 92.304 95.02L83.44 86.156C82.66 85.376 82.66 84.108 83.44 83.328C84.22 82.548 85.488 82.548 86.268 83.328L95.132 92.192C95.912 92.972 95.912 94.24 95.132 95.02C94.744 95.412 94.232 95.604 93.72 95.604Z" fill="#717171"/>
<path d="M114 124C111.332 124 108.82 122.96 106.928 121.072L92.928 107.072C91.04 105.18 90 102.672 90 100C90 97.328 91.04 94.82 92.928 92.928C96.552 89.304 103.444 89.304 107.068 92.928L121.068 106.928C122.96 108.82 124 111.328 124 114C124 116.672 122.96 119.18 121.072 121.072C119.184 122.964 116.668 124 114 124ZM100 94.08C98.372 94.08 96.828 94.688 95.756 95.76C94.624 96.892 94 98.4 94 100C94 101.6 94.624 103.108 95.756 104.244L109.756 118.244C112.024 120.508 115.972 120.508 118.24 118.244C119.376 117.108 120 115.6 120 114C120 112.4 119.376 110.892 118.244 109.756L104.244 95.756C103.172 94.688 101.628 94.08 100 94.08ZM52 100C25.532 100 4 78.468 4 52C4 25.532 25.532 4 52 4C78.468 4 100 25.532 100 52C100 78.468 78.468 100 52 100ZM52 8C27.74 8 8 27.74 8 52C8 76.26 27.74 96 52 96C76.26 96 96 76.26 96 52C96 27.74 76.26 8 52 8Z" fill="#717171"/>
<path d="M56 64.084C54.896 64.084 54 63.188 54 62.084C54 60.984 53.104 60.084 52 60.084C50.896 60.084 50 60.984 50 62.084C50 63.188 49.104 64.084 48 64.084C46.896 64.084 46 63.188 46 62.084C46 58.776 48.692 56.084 52 56.084C55.308 56.084 58 58.776 58 62.084C58 63.188 57.104 64.084 56 64.084ZM70 58C67.832 58 66 56.168 66 54C66 51.832 67.832 50 70 50C72.168 50 74 51.832 74 54C74 56.168 72.168 58 70 58ZM34 58C31.832 58 30 56.168 30 54C30 51.832 31.832 50 34 50C36.168 50 38 51.832 38 54C38 56.168 36.168 58 34 58Z" fill="#717171"/>
<path d="M93.72 95.604C93.208 95.604 92.696 95.408 92.304 95.02L83.44 86.156C82.66 85.376 82.66 84.108 83.44 83.328C84.22 82.548 85.488 82.548 86.268 83.328L95.132 92.192C95.912 92.972 95.912 94.24 95.132 95.02C94.744 95.412 94.232 95.604 93.72 95.604Z" fill="#717171"/>
<path d="M114 124C111.332 124 108.82 122.96 106.928 121.072L92.928 107.072C91.04 105.18 90 102.672 90 100C90 97.328 91.04 94.82 92.928 92.928C96.552 89.304 103.444 89.304 107.068 92.928L121.068 106.928C122.96 108.82 124 111.328 124 114C124 116.672 122.96 119.18 121.072 121.072C119.184 122.964 116.668 124 114 124ZM100 94.08C98.372 94.08 96.828 94.688 95.756 95.76C94.624 96.892 94 98.4 94 100C94 101.6 94.624 103.108 95.756 104.244L109.756 118.244C112.024 120.508 115.972 120.508 118.24 118.244C119.376 117.108 120 115.6 120 114C120 112.4 119.376 110.892 118.244 109.756L104.244 95.756C103.172 94.688 101.628 94.08 100 94.08ZM52 100C25.532 100 4 78.468 4 52C4 25.532 25.532 4 52 4C78.468 4 100 25.532 100 52C100 78.468 78.468 100 52 100ZM52 8C27.74 8 8 27.74 8 52C8 76.26 27.74 96 52 96C76.26 96 96 76.26 96 52C96 27.74 76.26 8 52 8Z" fill="#717171"/>
<path d="M56 64.084C54.896 64.084 54 63.188 54 62.084C54 60.984 53.104 60.084 52 60.084C50.896 60.084 50 60.984 50 62.084C50 63.188 49.104 64.084 48 64.084C46.896 64.084 46 63.188 46 62.084C46 58.776 48.692 56.084 52 56.084C55.308 56.084 58 58.776 58 62.084C58 63.188 57.104 64.084 56 64.084ZM70 58C67.832 58 66 56.168 66 54C66 51.832 67.832 50 70 50C72.168 50 74 51.832 74 54C74 56.168 72.168 58 70 58ZM34 58C31.832 58 30 56.168 30 54C30 51.832 31.832 50 34 50C36.168 50 38 51.832 38 54C38 56.168 36.168 58 34 58Z" fill="#717171"/>
</svg>
